<?xml version="1.0" encoding="UTF-8" standalone="no"?>
<!DOCTYPE svg PUBLIC "-//W3C//DTD SVG 1.1//EN" "http://www.w3.org/Graphics/SVG/1.1/DTD/svg11.dtd">
<svg width="100%" height="100%" viewBox="0 0 200 201" version="1.1" xmlns="http://www.w3.org/2000/svg" xmlns:xlink="http://www.w3.org/1999/xlink" xml:space="preserve" xmlns:serif="http://www.serif.com/" style="fill-rule:evenodd;clip-rule:evenodd;stroke-linejoin:round;stroke-miterlimit:2;">
    <g transform="matrix(1,0,0,1,-36,-36.1324)">
        <g transform="matrix(1,0,0,1,9,-2)">
            <path d="M64.398,196.453C64.398,203.99 70.565,210.157 78.102,210.157L160.323,210.157C167.86,210.157 174.027,203.99 174.027,196.453L174.027,186.175L64.397,186.175L64.398,196.453ZM114.075,193.028L124.353,193.028C126.237,193.028 127.778,194.569 127.778,196.453C127.778,198.337 126.237,199.879 124.353,199.879L114.075,199.879C112.19,199.879 110.649,198.337 110.649,196.453C110.649,194.569 112.19,193.028 114.075,193.028Z" style="fill:white;fill-rule:nonzero;fill-opacity:0.63;"/>
        </g>
        <g transform="matrix(1,0,0,1,9,-2)">
            <path d="M160.325,62.842L78.103,62.842C70.566,62.842 64.399,69.009 64.399,76.546L174.029,76.546C174.029,69.009 168.033,62.842 160.325,62.842Z" style="fill:white;fill-rule:nonzero;fill-opacity:0.63;"/>
        </g>
        <g transform="matrix(1,0,0,1,9,-2)">
            <path d="M133.26,164.079C129.491,166.134 125.38,167.676 121.098,168.703L120.756,168.703C120.585,168.703 120.585,168.874 120.413,168.874L119.557,169.045C118.186,169.388 116.817,169.73 115.274,169.73C112.534,169.73 109.792,169.045 107.566,167.503C103.968,165.276 101.57,161.508 100.885,157.397C100.029,152.601 101.741,147.805 105.168,144.379L113.39,136.157C114.075,135.472 113.903,134.786 113.903,134.443C113.903,134.101 113.561,133.416 112.705,133.245C111.506,132.902 110.135,133.074 108.936,133.758L104.653,136.499C101.741,138.383 98.316,138.555 95.233,137.184C92.15,135.813 90.094,132.901 89.751,129.647C89.237,124.851 90.779,120.226 94.204,116.629C96.945,113.888 100.714,110.119 103.968,106.694C104.824,105.837 104.996,104.81 104.824,103.781C104.653,102.753 103.968,101.897 102.94,101.384L102.769,101.384C100.542,100.356 97.973,100.356 95.746,101.555C94.033,102.411 91.978,101.897 91.122,100.184C90.265,98.471 90.779,96.416 92.492,95.559C96.603,93.333 101.399,93.162 105.51,95.046L105.681,95.046C108.764,96.417 110.82,99.157 111.505,102.412C112.019,105.667 110.992,109.092 108.765,111.319C105.51,114.574 101.913,118.342 99.002,121.083C97.118,122.967 96.261,125.707 96.432,128.448C96.603,129.819 97.631,130.504 97.974,130.675C98.316,130.846 99.515,131.189 100.714,130.504L104.997,127.764C107.909,125.88 111.335,125.366 114.59,126.393C117.502,127.249 119.729,129.648 120.414,132.56C121.099,135.472 120.243,138.555 118.016,140.782L109.794,149.004C107.91,150.888 107.054,153.457 107.567,156.027C107.91,158.254 109.281,160.31 111.165,161.509C113.049,162.707 115.276,163.05 117.503,162.365C119.559,154.485 123.498,147.29 129.322,141.467L174.372,95.73L174.369,83.397L64.74,83.397L64.74,179.323L174.369,179.323L174.369,125.195L143.878,156.028C140.452,159.283 137.026,162.023 133.258,164.079L133.26,164.079Z" style="fill:white;fill-opacity:0.63;fill-rule:nonzero;"/>
        </g>
        <g transform="matrix(1,0,0,1,9,-2)">
            <path d="M133.944,146.435C130.004,150.375 127.092,155.171 125.208,160.309C130.347,158.253 134.971,155.342 138.74,151.402L193.897,95.56L189.101,90.764L133.944,146.435Z" style="fill:white;fill-rule:nonzero;fill-opacity:0.63;"/>
        </g>
        <g transform="matrix(1,0,0,1,9,-2)">
            <path d="M206.575,77.746C205.89,77.061 205.033,76.718 204.177,76.718C203.321,76.718 202.464,77.061 201.78,77.746L193.9,85.797L198.696,90.593L206.576,82.542C207.261,81.857 207.604,81 207.604,80.144C207.603,79.287 207.089,78.431 206.575,77.746Z" style="fill:white;fill-rule:nonzero;fill-opacity:0.63;"/>
        </g>
    </g>
</svg>
