<?xml version="1.0" encoding="UTF-8" standalone="no"?>
<svg
   width="178pt"
   height="108.75128pt"
   version="1.1"
   viewBox="0 0 178 108.75128"
   id="svg4"
   sodipodi:docname="encryption.svg"
   inkscape:version="1.3 (0e150ed6c4, 2023-07-21)"
   xmlns:inkscape="http://www.inkscape.org/namespaces/inkscape"
   xmlns:sodipodi="http://sodipodi.sourceforge.net/DTD/sodipodi-0.dtd"
   xmlns="http://www.w3.org/2000/svg"
   xmlns:svg="http://www.w3.org/2000/svg">
  <defs
     id="defs4" />
  <sodipodi:namedview
     id="namedview4"
     pagecolor="#ffffff"
     bordercolor="#000000"
     borderopacity="0.25"
     inkscape:showpageshadow="2"
     inkscape:pageopacity="0.0"
     inkscape:pagecheckerboard="0"
     inkscape:deskcolor="#d1d1d1"
     inkscape:document-units="pt"
     inkscape:zoom="0.90028971"
     inkscape:cx="269.91312"
     inkscape:cy="329.33843"
     inkscape:window-width="1920"
     inkscape:window-height="1131"
     inkscape:window-x="0"
     inkscape:window-y="0"
     inkscape:window-maximized="1"
     inkscape:current-layer="svg4" />
  <g
     fill="#00a3d2"
     id="g4"
     transform="matrix(0.16659242,0,0,0.16659242,-11.91499,-37.483294)">
    <path
       d="M 1074.6,489.72 H 797.52 v -103.8 c 0.12109,-11.16 3.9609,-107.4 107.16,-107.4 103.2,0 107.04,96.238 107.16,107.28 v 34.801 h 53.52 V 385.8 C 1065.36,330.12 1031.758,225 904.68,225 777.6,225 744,330.12 744,385.8 v 103.92 h -2.1602 c -36.121,0 -65.398,30.121 -65.398,67.199 v 8.5195 h -487.68 c -64.559,0 -117.24,52.559 -117.24,117.12 0,64.801 52.68,117.24 117.24,117.24 h 487.68 v 10.801 c 0,37.078 29.281,67.199 65.398,67.199 h 332.76 c 36.121,0 65.398,-30.121 65.398,-67.199 v -253.68 c 0,-37.082 -29.281,-67.203 -65.398,-67.203 z M 671.76,760.8 h -483 c -43.078,0 -78.121,-35.039 -78.121,-78.238 0,-42.961 35.039,-78.121 78.121,-78.121 h 483 z m 274.68,0 H 856.202 L 879.6,688.921 c -14.039,-7.6797 -23.398,-22.559 -23.398,-39.602 0,-24.84 20.16,-45 45.121,-45 24.84,0 45.121,20.16 45.121,45 0,17.039 -9.4805,31.922 -23.398,39.602 z"
       id="path1" />
    <path
       d="m 247.32,682.48 43.801,33.828 -14.043,18.238 -36.957,-28.547 v 37.199 h -23.16 v -37.199 l -36.84,28.547 -14.16,-18.238 43.801,-33.828 -43.801,-33.84 14.039,-18.242 36.961,28.562 v -37.199 h 23.16 v 37.199 l 36.957,-28.562 14.043,18.242 z"
       id="path2" />
    <path
       d="m 424.32,682.48 43.801,33.828 -14.043,18.238 -36.957,-28.547 v 37.199 h -23.16 v -37.199 l -36.84,28.547 -14.16,-18.238 43.801,-33.828 -43.801,-33.84 14.039,-18.242 36.961,28.562 v -37.199 h 23.16 v 37.199 l 36.957,-28.562 14.043,18.242 z"
       id="path3" />
    <path
       d="m 601.32,682.48 43.801,33.828 -14.043,18.238 -36.957,-28.547 v 37.199 h -23.16 v -37.199 l -36.84,28.547 -14.16,-18.238 43.801,-33.828 -43.801,-33.84 14.039,-18.242 36.961,28.562 v -37.199 h 23.16 v 37.199 l 36.957,-28.562 14.043,18.242 z"
       id="path4" />
  </g>
</svg>
